<?xml version="1.0" encoding="utf-8"?>
<!-- Generator: Adobe Illustrator 21.0.2, SVG Export Plug-In . SVG Version: 6.00 Build 0)  -->
<svg version="1.1" xmlns="http://www.w3.org/2000/svg" xmlns:xlink="http://www.w3.org/1999/xlink" x="0px" y="0px" width="300px"
	 height="300px" viewBox="0 0 300 300" style="enable-background:new 0 0 300 300;" xml:space="preserve">
<style type="text/css">
	.st0{fill:none;stroke:#3D7BBB;stroke-width:3;stroke-miterlimit:10;}
	.st1{fill:none;stroke:#3D7BBB;stroke-width:8;stroke-miterlimit:10;}
	.st2{fill:url(#SVGID_1_);}
	.st3{fill:url(#SVGID_2_);}
	.st4{fill:url(#SVGID_3_);}
	.st5{display:none;}
	.st6{display:inline;fill:none;stroke:#3D7BBB;stroke-width:8;stroke-miterlimit:10;}
	.st7{display:inline;}
	.st8{fill:#3D7BBB;}
	.st9{fill:url(#SVGID_4_);}
	.st10{fill:url(#SVGID_5_);}
	.st11{fill:url(#SVGID_6_);}
	.st12{display:inline;fill:#3D7BBB;}
</style>
<g id="Layer_3">
	<g>
		<g>
			
				<rect x="77.3" y="76.7" transform="matrix(0.9999 -1.680912e-02 1.680912e-02 0.9999 -1.4037 1.33)" class="st0" width="2.2" height="14.9"/>
			
				<rect x="105.4" y="99.2" transform="matrix(0.9999 -1.676069e-02 1.676069e-02 0.9999 -1.7103 1.7992)" class="st0" width="2.2" height="7.5"/>
			
				<rect x="133.1" y="98.7" transform="matrix(0.9999 -1.676158e-02 1.676158e-02 0.9999 -1.6987 2.2643)" class="st0" width="2.2" height="7.5"/>
			
				<rect x="133.4" y="114.4" transform="matrix(0.9999 -1.673360e-02 1.673360e-02 0.9999 -1.9573 2.2671)" class="st0" width="2.2" height="7.5"/>
			
				<rect x="133.8" y="129.8" transform="matrix(0.9999 -1.679392e-02 1.679392e-02 0.9999 -2.3224 2.2844)" class="st0" width="2.2" height="19.3"/>
			
				<rect x="134.1" y="157.2" transform="matrix(0.9999 -1.678888e-02 1.678888e-02 0.9999 -2.6822 2.2927)" class="st0" width="2.2" height="7.3"/>
			
				<rect x="134.5" y="172.7" transform="matrix(0.9999 -1.680103e-02 1.680103e-02 0.9999 -3.0822 2.3045)" class="st0" width="2.2" height="23.7"/>
			
				<rect x="160.9" y="98.3" transform="matrix(0.9999 -1.666361e-02 1.666361e-02 0.9999 -1.6772 2.7133)" class="st0" width="2.2" height="7.5"/>
			
				<rect x="106.3" y="114.8" transform="matrix(0.9999 -1.678758e-02 1.678758e-02 0.9999 -2.6016 1.8245)" class="st0" width="2.2" height="82.1"/>
			
				<rect x="190.3" y="187.2" transform="matrix(0.9999 -1.680937e-02 1.680937e-02 0.9999 -3.3193 3.2448)" class="st0" width="2.2" height="23.7"/>
			
				<rect x="134.9" y="204.6" transform="matrix(0.9999 -1.672569e-02 1.672569e-02 0.9999 -3.4641 2.304)" class="st0" width="2.2" height="7.3"/>
			
				<rect x="161.2" y="113.9" transform="matrix(0.9999 -1.664350e-02 1.664350e-02 0.9999 -1.9352 2.7165)" class="st0" width="2.2" height="7.5"/>
			
				<rect x="161.6" y="129.3" transform="matrix(0.9999 -1.675271e-02 1.675271e-02 0.9999 -2.4349 2.7467)" class="st0" width="2.2" height="34.8"/>
			
				<rect x="162.1" y="172.3" transform="matrix(0.9999 -1.660238e-02 1.660238e-02 0.9999 -2.8976 2.7341)" class="st0" width="2.2" height="7.3"/>
			
				<rect x="162.5" y="187.7" transform="matrix(0.9999 -1.675750e-02 1.675750e-02 0.9999 -3.3208 2.7698)" class="st0" width="2.2" height="23.7"/>
			
				<rect x="189.6" y="129.3" transform="matrix(0.9999 -1.679013e-02 1.679013e-02 0.9999 -2.5617 3.2226)" class="st0" width="2.2" height="49.8"/>
		</g>
		<path class="st0" d="M70.6,100.8c-2.2-0.6-3.8-2.6-3.8-4.9c0-1.4,0.5-2.7,1.5-3.7c1-1,2.2-1.6,3.6-1.6l92.4-1.6
			c0.5,0,1,0.1,1.4,0.2c2.2,0.6,3.8,2.6,3.8,4.9c0,2.8-2.2,5.2-5.1,5.3L72,101C71.5,101,71.1,100.9,70.6,100.8z M165.2,91.4
			c-0.3-0.1-0.5-0.1-0.8-0.1l-92.4,1.6c-0.8,0-1.5,0.3-2.1,0.9c-0.6,0.6-0.9,1.3-0.8,2.1c0,1.3,0.9,2.5,2.2,2.8
			c0.3,0.1,0.5,0.1,0.8,0.1l92.4-1.6c1.6,0,3-1.4,2.9-3C167.4,92.9,166.4,91.7,165.2,91.4z"/>
		<path class="st0" d="M103.8,115.8c-2.2-0.6-3.8-2.6-3.8-4.9c0-1.4,0.5-2.7,1.5-3.7c1-1,2.2-1.6,3.6-1.6l59.9-1
			c0.5,0,1,0.1,1.4,0.2c2.2,0.6,3.8,2.6,3.8,4.9c0,2.8-2.2,5.2-5.1,5.3l-59.9,1C104.7,115.9,104.2,115.9,103.8,115.8z M165.8,106.9
			c-0.3-0.1-0.5-0.1-0.8-0.1l-59.9,1c-0.8,0-1.5,0.3-2.1,0.9c-0.6,0.6-0.9,1.3-0.8,2.1c0,1.3,0.9,2.5,2.2,2.8
			c0.3,0.1,0.5,0.1,0.8,0.1l59.9-1c1.6,0,3-1.4,2.9-3C168,108.4,167.1,107.2,165.8,106.9z"/>
		<path class="st0" d="M128.6,130.8c-2.2-0.6-3.8-2.6-3.8-4.9c0-1.4,0.5-2.7,1.5-3.7c1-1,2.2-1.6,3.6-1.6l74.8-1.3
			c0.5,0,1,0.1,1.4,0.2c2.2,0.6,3.8,2.6,3.8,4.9c0,1.4-0.5,2.7-1.5,3.7c-1,1-2.2,1.6-3.6,1.6l-74.8,1.3
			C129.5,130.9,129,130.9,128.6,130.8z M205.5,121.6c-0.3-0.1-0.5-0.1-0.8-0.1l-74.8,1.3c-0.8,0-1.5,0.3-2.1,0.9
			c-0.6,0.6-0.9,1.3-0.8,2.1c0,1.3,0.9,2.5,2.2,2.8c0.3,0.1,0.5,0.1,0.8,0.1l74.8-1.3c0.8,0,1.5-0.3,2.1-0.9
			c0.6-0.6,0.9-1.3,0.8-2.1C207.7,123.1,206.8,122,205.5,121.6z"/>
		<path class="st0" d="M117.3,158.4c-2.2-0.6-3.8-2.6-3.8-4.9c0-2.8,2.2-5.2,5.1-5.3l23.9-0.4c0.5,0,1,0.1,1.4,0.2
			c2.2,0.6,3.8,2.6,3.8,4.9c0,2.8-2.2,5.2-5.1,5.3l-23.9,0.4C118.2,158.6,117.7,158.5,117.3,158.4z M143.3,150.1
			c-0.3-0.1-0.5-0.1-0.8-0.1l-23.9,0.4c-1.6,0-3,1.4-2.9,3c0,1.3,0.9,2.5,2.2,2.8c0.3,0.1,0.5,0.1,0.8,0.1l23.9-0.4
			c1.6,0,3-1.4,2.9-3C145.5,151.6,144.6,150.5,143.3,150.1z"/>
		<path class="st0" d="M128.1,173.7c-2.2-0.6-3.8-2.6-3.8-4.9c0-2.8,2.2-5.2,5.1-5.3l51.3-0.9c0.5,0,1,0.1,1.4,0.2
			c2.2,0.6,3.8,2.6,3.8,4.9c0,1.4-0.5,2.7-1.5,3.7c-1,1-2.2,1.6-3.6,1.6l-51.3,0.9C129.1,173.9,128.6,173.9,128.1,173.7z M181.6,165
			c-0.3-0.1-0.5-0.1-0.8-0.1l-51.3,0.9c-1.6,0-3,1.4-2.9,3c0,1.3,0.9,2.5,2.2,2.8c0.3,0.1,0.5,0.1,0.8,0.1l51.3-0.9
			c0.8,0,1.5-0.3,2.1-0.9c0.6-0.6,0.9-1.3,0.8-2.1C183.8,166.5,182.9,165.3,181.6,165z"/>
		<path class="st0" d="M150.4,188.8c-2.2-0.6-3.8-2.6-3.8-4.9c0-2.8,2.2-5.2,5.1-5.3l103.7-1.7c0.5,0,1,0.1,1.4,0.2
			c2.2,0.6,3.8,2.6,3.8,4.9c0,2.8-2.2,5.2-5.1,5.3L151.8,189C151.3,189,150.8,188.9,150.4,188.8z M256.2,179.2
			c-0.3-0.1-0.5-0.1-0.8-0.1l-103.7,1.7c-1.6,0-3,1.4-2.9,3c0,1.3,0.9,2.5,2.2,2.8c0.3,0.1,0.5,0.1,0.8,0.1l103.7-1.7
			c1.6,0,3-1.4,2.9-3C258.4,180.7,257.5,179.5,256.2,179.2z"/>
		<path class="st0" d="M88.4,206.3c-2.2-0.6-3.8-2.6-3.8-4.9c0-1.4,0.5-2.7,1.5-3.7c1-1,2.2-1.6,3.6-1.6l53.3-0.9
			c0.5,0,1,0.1,1.4,0.2c2.2,0.6,3.8,2.6,3.8,4.9c0,1.4-0.5,2.7-1.5,3.7c-1,1-2.2,1.6-3.6,1.6l-53.3,0.9
			C89.4,206.5,88.9,206.4,88.4,206.3z M143.8,197.5c-0.3-0.1-0.5-0.1-0.8-0.1l-53.3,0.9c-0.8,0-1.5,0.3-2.1,0.9
			c-0.6,0.6-0.9,1.3-0.8,2.1c0,1.3,0.9,2.5,2.2,2.8c0.3,0.1,0.5,0.1,0.8,0.1l53.3-0.9c0.8,0,1.5-0.3,2.1-0.9
			c0.6-0.6,0.9-1.3,0.8-2.1C146,199,145.1,197.9,143.8,197.5z"/>
		<path class="st0" d="M130.1,221c-2.2-0.6-3.8-2.6-3.8-4.9c0-1.4,0.5-2.7,1.5-3.7c1-1,2.2-1.6,3.6-1.6l64.3-1.1
			c0.5,0,1,0.1,1.4,0.2c2.2,0.6,3.8,2.6,3.8,4.9c0,2.8-2.2,5.2-5.1,5.3l-64.3,1.1C131,221.2,130.6,221.1,130.1,221z M196.6,212.1
			c-0.3-0.1-0.5-0.1-0.8-0.1l-64.3,1.1c-0.8,0-1.5,0.3-2.1,0.9c-0.6,0.6-0.9,1.3-0.8,2.1c0,1.3,0.9,2.5,2.2,2.8
			c0.3,0.1,0.5,0.1,0.8,0.1l64.3-1.1c1.6,0,3-1.4,2.9-3C198.8,213.6,197.8,212.4,196.6,212.1z"/>
	</g>
</g>
<g id="Layer_1">
	<g>
		<circle class="st1" cx="147.4" cy="149.9" r="139.1"/>
		<g>
			<g>
				
					<linearGradient id="SVGID_1_" gradientUnits="userSpaceOnUse" x1="422.1597" y1="-2.6563" x2="600.6791" y2="-2.6563" gradientTransform="matrix(1 0 0 1 -298.3145 240.7656)">
					<stop  offset="0" style="stop-color:#FFFFFF"/>
					<stop  offset="1" style="stop-color:#1B75BB"/>
				</linearGradient>
				<polygon class="st2" points="277.9,216.8 299,238.3 277.9,259.4 248.6,259.4 268.6,238.3 248.6,216.8 				"/>
				
					<linearGradient id="SVGID_2_" gradientUnits="userSpaceOnUse" x1="422.1568" y1="-2.6563" x2="600.6753" y2="-2.6563" gradientTransform="matrix(1 0 0 1 -298.3145 240.7656)">
					<stop  offset="0" style="stop-color:#FFFFFF"/>
					<stop  offset="1" style="stop-color:#1B75BB"/>
				</linearGradient>
				<polygon class="st3" points="231.5,216.8 252.6,238.3 231.5,259.4 202.1,259.4 222.2,238.3 202.1,216.8 				"/>
				
					<linearGradient id="SVGID_3_" gradientUnits="userSpaceOnUse" x1="422.1585" y1="-2.6563" x2="600.6771" y2="-2.6563" gradientTransform="matrix(1 0 0 1 -298.3145 240.7656)">
					<stop  offset="0" style="stop-color:#FFFFFF"/>
					<stop  offset="1" style="stop-color:#1B75BB"/>
				</linearGradient>
				<polygon class="st4" points="185,216.8 206.2,238.3 185,259.4 155.7,259.4 175.7,238.3 155.7,216.8 				"/>
			</g>
		</g>
	</g>
	<g class="st5">
		<circle class="st6" cx="147.5" cy="149.9" r="138.7"/>
		<g class="st7">
			<path class="st8" d="M52.9,215.6h60.6c0,0,27.2-80,113.2-70.6C226.7,145,122,116.7,52.9,215.6z M83.6,213.4l-6.6-1.2
				c2.5-3.8,5.8-8.6,9.9-14c1.9,0.4,3.9,0.8,5.9,1.2C89.7,203.7,86.6,208.4,83.6,213.4z M99.4,191.1l-5.7-1c3.5-3.9,7.3-8,11.6-11.9
				c1.6,0.4,3.3,0.8,5,1.2C106.6,182.8,103,186.7,99.4,191.1z M117.8,173c-1.6-0.4-3.2-0.8-4.8-1.2c3.4-2.9,7.1-5.6,11-8.2
				c1.3,0.4,2.8,0.9,4.2,1.4C124.9,167.3,121.4,170,117.8,173z M136.3,159.9l-3.6-1.6c4.7-2.5,9.5-4.7,14.6-6.4c0.9,0.4,2,0.9,3,1.3
				C145.9,154.9,141.2,157.1,136.3,159.9z M159.8,150c-0.7-0.4-1.3-0.8-2.1-1.1c2.7-0.6,5.5-1,8.3-1.4c0.5,0.2,0.9,0.5,1.4,0.8
				C165,148.7,162.6,149.3,159.8,150z"/>
			<polygon class="st8" points="162.9,197.3 175.2,197.3 154.3,72.7 117.2,161 130.3,156.1 152.6,84.4 			"/>
			<path class="st8" d="M207.4,95.2l-20.7,49.2c2.3-0.2,4.5-0.1,6.9,0l12.4-40l8.1,88.6h9.6L207.4,95.2z"/>
		</g>
		<g class="st7">
			<g>
				
					<linearGradient id="SVGID_4_" gradientUnits="userSpaceOnUse" x1="422.3201" y1="302.8936" x2="600.394" y2="302.8936" gradientTransform="matrix(1 0 0 -1 -298.3145 540.7656)">
					<stop  offset="0" style="stop-color:#FFFFFF"/>
					<stop  offset="1" style="stop-color:#1B75BB"/>
				</linearGradient>
				<polygon class="st9" points="277.6,216.6 298.7,238.1 277.6,259.1 248.4,259.1 268.4,238.1 248.4,216.6 				"/>
				
					<linearGradient id="SVGID_5_" gradientUnits="userSpaceOnUse" x1="422.3172" y1="302.8936" x2="600.3903" y2="302.8936" gradientTransform="matrix(1 0 0 -1 -298.3145 540.7656)">
					<stop  offset="0" style="stop-color:#FFFFFF"/>
					<stop  offset="1" style="stop-color:#1B75BB"/>
				</linearGradient>
				<polygon class="st10" points="231.3,216.6 252.4,238.1 231.3,259.1 202.2,259.1 222.1,238.1 202.2,216.6 				"/>
				
					<linearGradient id="SVGID_6_" gradientUnits="userSpaceOnUse" x1="422.3188" y1="302.8936" x2="600.392" y2="302.8936" gradientTransform="matrix(1 0 0 -1 -298.3145 540.7656)">
					<stop  offset="0" style="stop-color:#FFFFFF"/>
					<stop  offset="1" style="stop-color:#1B75BB"/>
				</linearGradient>
				<polygon class="st11" points="185,216.6 206.1,238.1 185,259.1 155.8,259.1 175.8,238.1 155.8,216.6 				"/>
			</g>
		</g>
	</g>
</g>
<g id="Layer_2" class="st5">
	<path class="st12" d="M238.2,108.6l-1.9-1v1.1H52.9v0h-1.4v86.1h191.7v-86.1H238.2z M69.2,183.1h-7.3v-62.8h7.3V183.1z M85.5,183.1
		h-7.3v-62.8h7.3V183.1z M101.8,183.1h-7.3v-62.8h7.3V183.1z M118.1,183.1h-7.3v-62.8h7.3V183.1z M134.4,183.1h-7.3v-62.8h7.3V183.1
		z M150.7,183.1h-7.3v-62.8h7.3V183.1z M167.1,183.1h-7.3v-62.8h7.3V183.1z M183.4,183.1h-7.3v-62.8h7.3V183.1z M199.7,183.1h-7.3
		v-62.8h7.3V183.1z M216,183.1h-7.3v-62.8h7.3V183.1z M232.3,183.1H225v-62.8h7.3V183.1z"/>
</g>
</svg>
